<?xml version="1.0" encoding="UTF-8"?>
<svg xmlns="http://www.w3.org/2000/svg" width="828" height="945" viewBox="0 0 828 945" fill="none">
  <path d="M580.788 593.742C580.788 606.939 590.693 617.638 602.911 617.638" stroke="#EDEDED" stroke-width="5.5" stroke-linecap="round" stroke-linejoin="round"></path>
  <path d="M444.835 593.742C444.835 606.939 454.741 617.638 466.959 617.638L599.748 617.638" stroke="#EDEDED" stroke-width="5.5" stroke-linecap="round" stroke-linejoin="round"></path>
  <path d="M602.912 617.638C615.131 617.638 625.036 606.939 625.036 593.742" stroke="#EDEDED" stroke-width="5.5" stroke-linecap="round" stroke-linejoin="round"></path>
  <path d="M602.909 593.742C602.909 602.445 598.814 610.06 592.698 614.225" stroke="#EDEDED" stroke-width="5.5" stroke-linecap="round" stroke-linejoin="round"></path>
  <path d="M444.347 597.084C444.347 562.373 475.347 534.235 512.883 534.235C550.418 534.235 580.847 562.373 580.847 597.084" stroke="#EDEDED" stroke-width="5.5" stroke-linecap="round" stroke-linejoin="round"></path>
  <path d="M602.909 593.741C602.909 572.627 586.489 555.217 563.482 552.775" stroke="#EDEDED" stroke-width="5.5" stroke-linecap="round" stroke-linejoin="round"></path>
  <path d="M625.036 593.742C625.036 560.747 595.009 534 557.969 534C551.104 534 544.48 534.919 538.243 536.626" stroke="#EDEDED" stroke-width="5.5" stroke-linecap="round" stroke-linejoin="round"></path>
  <path d="M652.908 356.346H585.894C573.131 356.346 562.785 366.365 562.785 379.454V400.252" stroke="#EDEDED" stroke-width="5.5" stroke-miterlimit="10" stroke-linecap="round" stroke-linejoin="round"></path>
  <path d="M473.819 312.441H540.833C553.596 312.441 563.942 322.46 563.942 335.549V356.347" stroke="#EDEDED" stroke-width="5.5" stroke-miterlimit="10" stroke-linecap="round" stroke-linejoin="round"></path>
  <path d="M562.785 400.252C562.785 413.342 573.131 423.36 585.894 423.36" stroke="#EDEDED" stroke-width="5.5" stroke-miterlimit="10" stroke-linecap="round" stroke-linejoin="round"></path>
  <path d="M563.942 356.347C563.942 369.436 553.596 379.455 540.833 379.455" stroke="#EDEDED" stroke-width="5.5" stroke-miterlimit="10" stroke-linecap="round" stroke-linejoin="round"></path>
  <path d="M584.736 425.094L584.736 446.758" stroke="#EDEDED" stroke-width="5.5" stroke-linecap="round"></path>
  <path d="M539.677 380.032L539.677 401.119" stroke="#EDEDED" stroke-width="5.5" stroke-linecap="round"></path>
  <path d="M584.736 446.866L608.133 423.469L652.905 423.469" stroke="#EDEDED" stroke-width="5.5" stroke-linecap="round" stroke-linejoin="round"></path>
  <path d="M539.68 401.228L518.593 379.564L473.821 379.564" stroke="#EDEDED" stroke-width="5.5" stroke-linecap="round" stroke-linejoin="round"></path>
  <path d="M473.241 334.393H539.677" stroke="#EDEDED" stroke-width="5.5" stroke-linecap="round" stroke-linejoin="round"></path>
  <path d="M494.617 356.346H539.678" stroke="#EDEDED" stroke-width="5.5" stroke-linecap="round" stroke-linejoin="round"></path>
  <path d="M584.736 401.407H607.555" stroke="#EDEDED" stroke-width="5.5" stroke-linecap="round" stroke-linejoin="round"></path>
  <path d="M607.848 379.455H652.909" stroke="#EDEDED" stroke-width="5.5" stroke-linecap="round" stroke-linejoin="round"></path>
  <path d="M406.942 663.503C420.796 693.576 454.484 707.46 481.246 707.46C505.174 707.46 535.436 692.046 554.29 663.503L591.179 616.1" stroke="#EDEDED" stroke-width="5.5" stroke-linecap="round" stroke-linejoin="round"></path>
  <path d="M406.945 662.359C420.798 632.093 454.486 618.12 481.248 618.12C505.176 618.12 535.439 633.632 554.292 662.359L587.648 707.46" stroke="#EDEDED" stroke-width="5.5" stroke-linecap="round" stroke-linejoin="round"></path>
  <path d="M453.14 684.687C465.245 684.687 475.059 675.275 475.059 663.665H452.251" stroke="#EDEDED" stroke-width="5.5" stroke-linecap="round" stroke-linejoin="round"></path>
  <path d="M429.768 663.745H408.715" stroke="#EDEDED" stroke-width="5.5" stroke-linecap="round" stroke-linejoin="round"></path>
  <path d="M451 622L451 703" stroke="#EDEDED" stroke-width="5.5"></path>
  <path d="M541.296 707.681L541.296 680.402" stroke="#EDEDED" stroke-width="5.5" stroke-linecap="round"></path>
  <path d="M541.296 645.64L541.296 617.527" stroke="#EDEDED" stroke-width="5.5" stroke-linecap="round"></path>
  <path d="M478.291 617.615L538.401 617.615" stroke="#EDEDED" stroke-width="5.5" stroke-linecap="round"></path>
  <path d="M479.015 707.923L540.574 707.923" stroke="#EDEDED" stroke-width="5.5" stroke-linecap="round"></path>
  <path d="M37.8092 352.219C73.4742 387.777 130.933 385.265 166.146 350.157L171.447 345.285" stroke="#EDEDED" stroke-width="5.5" stroke-linecap="round" stroke-linejoin="round"></path>
  <path d="M170.287 217.263C205.952 252.821 206.318 310.109 171.105 345.217" stroke="#EDEDED" stroke-width="5.5" stroke-linecap="round" stroke-linejoin="round"></path>
  <path d="M37.9137 353.43L170.252 217.351" stroke="#EDEDED" stroke-width="5.5" stroke-linecap="round"></path>
  <path d="M164.978 347.396L104.894 286.039" stroke="#EDEDED" stroke-width="5.5" stroke-linecap="round"></path>
  <path d="M105.104 376.141L105.103 286.593" stroke="#EDEDED" stroke-width="5.5" stroke-linecap="round"></path>
  <path d="M194.988 284.934L104.34 284.934" stroke="#EDEDED" stroke-width="5.5" stroke-linecap="round"></path>
  <path d="M473.55 452.018V439.835V380.417M385.167 380.417V499.565M443.343 458.171L461.349 476.378C462.619 477.954 465.159 482.113 465.159 486.14C465.159 491.175 463.983 508.088 478.696 510.959H396.914" stroke="#EDEDED" stroke-width="5.5" stroke-linecap="round" stroke-linejoin="round"></path>
  <path d="M474.951 416.496L498.283 443.195C498.283 443.195 515.63 460.408 515.63 474.113C515.63 491.403 515.629 534.421 515.629 534.421" stroke="#EDEDED" stroke-width="5.5" stroke-linecap="round" stroke-linejoin="round"></path>
  <path d="M442.569 457.618C442.569 457.618 437.298 450.167 444.006 442.143C451.738 432.895 461.353 442.143 461.353 442.143L478.7 459.433L486.979 468.585" stroke="#EDEDED" stroke-width="5.5" stroke-linecap="round" stroke-linejoin="round"></path>
  <path d="M396.636 510.753C390.457 510.753 385.448 505.744 385.448 499.565" stroke="#EDEDED" stroke-width="5.5" stroke-miterlimit="10" stroke-linecap="round" stroke-linejoin="round"></path>
  <path d="M450.896 522.5C450.896 516.321 455.904 511.312 462.083 511.312" stroke="#EDEDED" stroke-width="5.5" stroke-miterlimit="10" stroke-linecap="round" stroke-linejoin="round"></path>
  <path d="M407.262 380.137L407.262 506.558" stroke="#EDEDED" stroke-width="5.5" stroke-miterlimit="10" stroke-linecap="round" stroke-linejoin="round"></path>
  <path d="M428.52 468.24L428.52 490.055" stroke="#EDEDED" stroke-width="5.5" stroke-miterlimit="10" stroke-linecap="round" stroke-linejoin="round"></path>
  <path d="M450.896 379.298L450.896 401.114" stroke="#EDEDED" stroke-width="5.5" stroke-miterlimit="10" stroke-linecap="round" stroke-linejoin="round"></path>
  <path d="M451 523L451 566" stroke="#EDEDED" stroke-width="5.5" stroke-linecap="round" stroke-linejoin="round"></path>
  <path d="M337.382 533.129L512.708 533.129" stroke="#EDEDED" stroke-width="5.5" stroke-linecap="round" stroke-linejoin="round"></path>
  <path d="M461 511L517 511" stroke="#EDEDED" stroke-width="5.5" stroke-linecap="round" stroke-linejoin="round"></path>
  <path d="M470.89 187.3C470.89 159.737 448.545 137.393 420.982 137.393C393.419 137.393 371.075 159.737 371.075 187.3V211.294" stroke="#EDEDED" stroke-width="5.5" stroke-linecap="round"></path>
  <path d="M470.889 187.3C470.889 159.737 493.233 137.393 520.797 137.393C548.36 137.393 570.704 159.737 570.704 187.3V211.614" stroke="#EDEDED" stroke-width="5.5" stroke-linecap="round"></path>
  <path d="M371.076 211.727L470.89 311.085" stroke="#EDEDED" stroke-width="5.5" stroke-linecap="round"></path>
  <path d="M570.576 211.726L470.987 311.776" stroke="#EDEDED" stroke-width="5.5" stroke-linecap="round"></path>
  <path d="M339.08 100.265C321.407 100.265 307.08 85.8921 307.08 68.1624" stroke="#EDEDED" stroke-width="5.5" stroke-linecap="round"></path>
  <path d="M269.205 147.221C260.369 147.221 253.205 140.035 253.205 131.17" stroke="#EDEDED" stroke-width="5.5" stroke-linecap="round"></path>
  <path d="M371.082 56.3889C362.245 56.3889 355.081 49.0183 355.081 39.9261" stroke="#EDEDED" stroke-width="5.5" stroke-linecap="round"></path>
  <path d="M339.08 100.265C321.407 100.265 307.08 114.638 307.08 132.367" stroke="#EDEDED" stroke-width="5.5" stroke-linecap="round"></path>
  <path d="M269.205 147.221C260.369 147.221 253.205 154.408 253.205 163.273" stroke="#EDEDED" stroke-width="5.5" stroke-linecap="round"></path>
  <path d="M371.082 56.3889C362.245 56.3889 355.081 63.5753 355.081 72.4402" stroke="#EDEDED" stroke-width="5.5" stroke-linecap="round"></path>
  <path d="M275.08 100.265C292.753 100.265 307.08 85.8921 307.08 68.1624" stroke="#EDEDED" stroke-width="5.5" stroke-linecap="round"></path>
  <path d="M237.205 147.221C246.042 147.221 253.205 140.035 253.205 131.17" stroke="#EDEDED" stroke-width="5.5" stroke-linecap="round"></path>
  <path d="M338.671 56.3889C347.734 56.3889 355.081 49.0183 355.081 39.9261" stroke="#EDEDED" stroke-width="5.5" stroke-linecap="round"></path>
  <path d="M275.08 100.265C292.753 100.265 307.08 114.638 307.08 132.367" stroke="#EDEDED" stroke-width="5.5" stroke-linecap="round"></path>
  <path d="M237.205 147.221C246.042 147.221 253.205 154.408 253.205 163.273" stroke="#EDEDED" stroke-width="5.5" stroke-linecap="round"></path>
  <path d="M338.671 56.3889C347.734 56.3889 355.081 63.5753 355.081 72.4402" stroke="#EDEDED" stroke-width="5.5" stroke-linecap="round"></path>
  <path d="M339.081 185.197C321.408 185.197 307.081 170.824 307.081 153.094" stroke="#EDEDED" stroke-width="5.5" stroke-linecap="round"></path>
  <path d="M339.081 185.197C321.408 185.197 307.081 199.569 307.081 217.299" stroke="#EDEDED" stroke-width="5.5" stroke-linecap="round"></path>
  <path d="M275.081 185.197C292.754 185.197 307.081 170.824 307.081 153.094" stroke="#EDEDED" stroke-width="5.5" stroke-linecap="round"></path>
  <path d="M275.081 185.197C292.754 185.197 307.081 199.569 307.081 217.299" stroke="#EDEDED" stroke-width="5.5" stroke-linecap="round"></path>
  <path d="M308.187 402.12C268.791 402.12 236.854 370.313 236.854 331.077L378.912 331.077" stroke="#EDEDED" stroke-width="5.5" stroke-linecap="round" stroke-linejoin="round"></path>
  <path d="M307.58 402.12C346.976 402.12 378.914 370.313 378.914 331.077" stroke="#EDEDED" stroke-width="5.5" stroke-linecap="round" stroke-linejoin="round"></path>
  <path d="M284.41 293.579C264.543 293.579 248.438 309.752 248.438 329.702L248.438 330.165" stroke="#EDEDED" stroke-width="5.5" stroke-linecap="round" stroke-linejoin="round"></path>
  <path d="M284.41 293.579C304.277 293.579 320.382 309.752 320.382 329.702L320.382 330.165" stroke="#EDEDED" stroke-width="5.5" stroke-linecap="round" stroke-linejoin="round"></path>
  <path d="M284.408 311.872C276.327 311.872 269.776 318.341 269.776 326.321L269.776 326.507" stroke="#EDEDED" stroke-width="5.5" stroke-linecap="round" stroke-linejoin="round"></path>
  <path d="M284.406 311.872C292.487 311.872 299.038 318.341 299.038 326.321L299.038 326.507" stroke="#EDEDED" stroke-width="5.5" stroke-linecap="round" stroke-linejoin="round"></path>
  <path d="M333.183 313.701C340.436 313.701 345.377 319.631 345.377 326.946L345.377 327.116" stroke="#EDEDED" stroke-width="5.5" stroke-linecap="round" stroke-linejoin="round"></path>
  <path d="M331.966 293.579C351.832 293.579 367.938 309.752 367.938 329.702L367.938 330.165" stroke="#EDEDED" stroke-width="5.5" stroke-linecap="round" stroke-linejoin="round"></path>
  <path d="M330.377 313.091L330.377 211.258" stroke="#EDEDED" stroke-width="5.5" stroke-linecap="round" stroke-linejoin="round"></path>
  <path d="M331.967 285.374H443.884" stroke="#EDEDED" stroke-width="5.5" stroke-linecap="round" stroke-linejoin="round"></path>
  <path d="M167.922 285.374H283.494" stroke="#EDEDED" stroke-width="5.5" stroke-linecap="round" stroke-linejoin="round"></path>
  <path d="M210.916 262.202L399.261 238.97" stroke="#EDEDED" stroke-width="5.5" stroke-linecap="round" stroke-linejoin="round"></path>
  <path d="M307.106 301.811L307.106 211.869" stroke="#EDEDED" stroke-width="5.5" stroke-linecap="round" stroke-linejoin="round"></path>
  <path d="M283.833 292.358L283.833 211.868" stroke="#EDEDED" stroke-width="5.5" stroke-linecap="round" stroke-linejoin="round"></path>
  <path d="M283.801 403.644L283.801 397.851" stroke="#EDEDED" stroke-width="5.5" stroke-linecap="round" stroke-linejoin="round"></path>
  <path d="M332.575 403.644L332.575 397.851" stroke="#EDEDED" stroke-width="5.5" stroke-linecap="round" stroke-linejoin="round"></path>
  <path d="M237.208 532.868H364.85" stroke="#EDEDED" stroke-width="5.5" stroke-linecap="round" stroke-linejoin="round"></path>
  <path d="M384.865 418.206C384.865 411.634 379.537 406.307 372.966 406.307" stroke="#EDEDED" stroke-width="5.5" stroke-linecap="round" stroke-linejoin="round"></path>
  <path d="M219.595 418.206C219.595 411.634 224.922 406.307 231.494 406.307" stroke="#EDEDED" stroke-width="5.5" stroke-linecap="round" stroke-linejoin="round"></path>
  <path d="M372.966 512.314C379.537 512.314 384.865 506.987 384.865 500.416" stroke="#EDEDED" stroke-width="5.5" stroke-linecap="round" stroke-linejoin="round"></path>
  <path d="M231.494 512.314C224.922 512.314 219.595 506.987 219.595 500.416" stroke="#EDEDED" stroke-width="5.5" stroke-linecap="round" stroke-linejoin="round"></path>
  <path d="M231.879 406.307L371.884 406.307" stroke="#EDEDED" stroke-width="5.5" stroke-linecap="round" stroke-linejoin="round"></path>
  <path d="M231.607 512.314L372.693 512.314" stroke="#EDEDED" stroke-width="5.5" stroke-linecap="round" stroke-linejoin="round"></path>
  <path d="M385.408 555.043C385.408 543.095 375.722 532.868 363.774 532.868" stroke="#EDEDED" stroke-width="5.5" stroke-linecap="round" stroke-linejoin="round"></path>
  <path d="M217.246 555.043C217.246 543.095 226.932 532.868 238.88 532.868" stroke="#EDEDED" stroke-width="5.5" stroke-linecap="round" stroke-linejoin="round"></path>
  <path d="M280.478 512.316C280.478 524.264 270.792 532.868 258.844 532.868M321.854 512.316C321.854 524.264 331.54 532.868 343.488 532.868" stroke="#EDEDED" stroke-width="5.5" stroke-linecap="round" stroke-linejoin="round"></path>
  <path d="M384.865 419.287L384.865 499.334" stroke="#EDEDED" stroke-width="5.5" stroke-linecap="round" stroke-linejoin="round"></path>
  <path d="M219.595 419.287L219.595 499.334" stroke="#EDEDED" stroke-width="5.5" stroke-linecap="round" stroke-linejoin="round"></path>
  <path d="M384.865 427.942H406.499" stroke="#EDEDED" stroke-width="5.5" stroke-linecap="round" stroke-linejoin="round"></path>
  <path d="M384.865 490.681H406.499" stroke="#EDEDED" stroke-width="5.5" stroke-linecap="round" stroke-linejoin="round"></path>
  <path d="M290.753 553.893H314.651" stroke="#EDEDED" stroke-width="5.5" stroke-linecap="round" stroke-linejoin="round"></path>
  <path d="M158.508 209.555C187.316 209.555 210.67 186.201 210.67 157.393C210.67 128.584 187.316 105.23 158.508 105.23C129.699 105.23 106.346 128.584 106.346 157.393C106.346 186.201 129.699 209.555 158.508 209.555Z" stroke="#EDEDED" stroke-width="5.5" stroke-miterlimit="10" stroke-linecap="round" stroke-linejoin="round"></path>
  <path d="M210.67 236.522V158.819" stroke="#EDEDED" stroke-width="5.5" stroke-miterlimit="10" stroke-linecap="round" stroke-linejoin="round"></path>
  <path d="M106.508 281.831L106.508 158.819" stroke="#EDEDED" stroke-width="5.5" stroke-miterlimit="10" stroke-linecap="round" stroke-linejoin="round"></path>
  <path d="M158.334 130.834L132.028 157.643L158.334 184.451L184.64 157.643L158.334 130.834Z" stroke="#EDEDED" stroke-width="5.5" stroke-miterlimit="10" stroke-linecap="round" stroke-linejoin="round"></path>
  <path d="M587.8 706.685C628.757 706.685 661.959 739.719 661.959 780.881H527.87" stroke="#EDEDED" stroke-width="5.5" stroke-linecap="round" stroke-linejoin="round"></path>
  <path d="M637.24 875.27C650.892 875.27 661.959 864.147 661.959 850.427L563.698 850.427" stroke="#EDEDED" stroke-width="5.5" stroke-linecap="round" stroke-linejoin="round"></path>
  <path d="M611.9 850.427L525 850.427" stroke="#EDEDED" stroke-width="5.5" stroke-linecap="round" stroke-linejoin="round"></path>
  <path d="M599.544 800.739H563.392" stroke="#EDEDED" stroke-width="5.5" stroke-linecap="round" stroke-linejoin="round"></path>
  <path d="M551.492 800.739H579.732" stroke="#EDEDED" stroke-width="5.5" stroke-linecap="round" stroke-linejoin="round"></path>
  <path d="M587.74 826.204H549.333" stroke="#EDEDED" stroke-width="5.5" stroke-linecap="round" stroke-linejoin="round"></path>
  <path d="M649.6 826.204C656.426 826.204 661.959 820.642 661.959 813.782" stroke="#EDEDED" stroke-width="5.5" stroke-linecap="round"></path>
  <path d="M636.004 801.361C636.004 808.222 630.47 813.783 623.644 813.783" stroke="#EDEDED" stroke-width="5.5" stroke-linecap="round"></path>
  <path d="M661.959 813.783C661.959 806.923 656.426 801.362 649.6 801.362H637.549" stroke="#EDEDED" stroke-width="5.5" stroke-linecap="round"></path>
  <path d="M623.648 813.782C623.648 820.642 618.114 826.204 611.288 826.204" stroke="#EDEDED" stroke-width="5.5" stroke-linecap="round"></path>
  <path d="M538.445 813.225C538.445 820.085 543.978 825.647 550.804 825.647" stroke="#EDEDED" stroke-width="5.5" stroke-linecap="round"></path>
  <path d="M551.389 800.985C544.529 800.985 538.968 806.519 538.968 813.345" stroke="#EDEDED" stroke-width="5.5" stroke-linecap="round"></path>
  <path d="M611.904 826.204C605.078 826.204 599.544 820.642 599.544 813.782V801.05" stroke="#EDEDED" stroke-width="5.5" stroke-linecap="round"></path>
  <path d="M599.545 850.427C592.718 850.427 587.185 844.648 587.185 837.521V826.204" stroke="#EDEDED" stroke-width="5.5" stroke-linecap="round"></path>
  <path d="M710.148 759.828L710.148 877.009" stroke="#EDEDED" stroke-width="5.5" stroke-linecap="round" stroke-linejoin="round"></path>
  <path d="M733.802 658L733.802 776.022" stroke="#EDEDED" stroke-width="5.5" stroke-linecap="round" stroke-linejoin="round"></path>
  <path d="M662.796 672.362L662.796 775.616" stroke="#EDEDED" stroke-width="5.5" stroke-linecap="round" stroke-linejoin="round"></path>
  <path d="M686.645 673.173L686.645 775.615" stroke="#EDEDED" stroke-width="5.5" stroke-linecap="round" stroke-linejoin="round"></path>
  <path d="M756.773 658.91L756.773 775.616" stroke="#EDEDED" stroke-width="5.5" stroke-linecap="round" stroke-linejoin="round"></path>
  <path d="M687.728 871.588L687.728 758.925H709.848" stroke="#EDEDED" stroke-width="5.5" stroke-linecap="round" stroke-linejoin="round"></path>
  <path d="M732.873 821.508L732.873 879.174" stroke="#EDEDED" stroke-width="5.5" stroke-linecap="round" stroke-linejoin="round"></path>
  <path d="M710.452 879.162L710.452 820.604L732.572 820.604" stroke="#EDEDED" stroke-width="5.5" stroke-linecap="round" stroke-linejoin="round"></path>
  <path d="M663.087 672.362L674.327 672.362L685.567 672.362" stroke="#EDEDED" stroke-width="5.5" stroke-linecap="round" stroke-linejoin="round"></path>
  <path d="M757.243 775.99H734.132M757.243 658.098H734.132" stroke="#EDEDED" stroke-width="5.5" stroke-linecap="round" stroke-linejoin="round"></path>
  <path d="M685.568 831.221H661.289" stroke="#EDEDED" stroke-width="5.5" stroke-linecap="round" stroke-linejoin="round"></path>
  <path d="M660.991 831.824L660.991 942.183" stroke="#EDEDED" stroke-width="5.5" stroke-linecap="round" stroke-linejoin="round"></path>
  <path d="M781.454 831.555L781.454 941.19" stroke="#EDEDED" stroke-width="5.5" stroke-linecap="round" stroke-linejoin="round"></path>
  <path d="M662.796 831.221C662.796 857.84 684.268 879.419 710.754 879.419L731.914 879.419" stroke="#EDEDED" stroke-width="5.5" stroke-linecap="round"></path>
  <path d="M779.478 831.221C779.478 857.84 758.006 879.419 731.519 879.419L710.359 879.419" stroke="#EDEDED" stroke-width="5.5" stroke-linecap="round"></path>
  <path d="M780.657 831.222H732.606" stroke="#EDEDED" stroke-width="5.5" stroke-linecap="round" stroke-linejoin="round"></path>
  <path d="M617.996 196.983C616.477 196.983 615.246 198.214 615.246 199.733C615.246 201.251 616.477 202.483 617.996 202.483L617.996 196.983ZM637.575 178C637.575 188.691 628.905 196.983 617.996 196.983L617.996 202.483C631.751 202.483 643.075 191.917 643.075 178L637.575 178Z" fill="#EDEDED"></path>
  <path d="M662.012 178.001C662.012 201.713 642.962 221.467 619.463 221.467" stroke="#EDEDED" stroke-width="5.5" stroke-linejoin="round"></path>
  <path d="M684.02 178.001C684.02 194.918 676.747 210.257 664.947 221.467" stroke="#EDEDED" stroke-width="5.5" stroke-linejoin="round"></path>
  <path d="M557.347 221.282L719.653 221.282" stroke="#EDEDED" stroke-width="5.5" stroke-linejoin="round"></path>
  <path d="M572.829 224.951L595.506 353.176" stroke="#EDEDED" stroke-width="5.5" stroke-linecap="round" stroke-linejoin="round"></path>
  <path d="M600.303 222.915L662.012 290.975" stroke="#EDEDED" stroke-width="5.5" stroke-linecap="round" stroke-linejoin="round"></path>
  <path d="M684.331 354.045L644.976 307.37" stroke="#EDEDED" stroke-width="5.5" stroke-linecap="round" stroke-linejoin="round"></path>
  <line x1="2.75" y1="-2.75" x2="135.811" y2="-2.75" transform="matrix(-0.158833 0.987305 -0.986621 -0.16303 703.094 220.198)" stroke="#EDEDED" stroke-width="5.5" stroke-linecap="round"></line>
  <path d="M677.766 222.222L642.828 262.045" stroke="#EDEDED" stroke-width="5.5" stroke-linecap="round" stroke-linejoin="round"></path>
  <path d="M596.24 353.186L661.713 291.611" stroke="#EDEDED" stroke-width="5.5" stroke-linecap="round" stroke-linejoin="round"></path>
  <path d="M705.582 584.204V610.566" stroke="#EDEDED" stroke-width="5.5" stroke-linecap="round"></path>
  <path d="M757.058 496.747V512.778" stroke="#EDEDED" stroke-width="5.5"></path>
  <path d="M808.535 584.204V610.566" stroke="#EDEDED" stroke-width="5.5"></path>
  <path d="M732.122 423.718V516.34" stroke="#EDEDED" stroke-width="5.5" stroke-linecap="round"></path>
  <path d="M717.872 397V425.499" stroke="#EDEDED" stroke-width="5.5"></path>
  <path d="M612.781 423.718H732.122" stroke="#EDEDED" stroke-width="5.5" stroke-linecap="round"></path>
  <path d="M686.701 582.78L824.744 584.026" stroke="#EDEDED" stroke-width="5.5" stroke-linecap="round"></path>
  <path d="M691.154 610.744H824.744" stroke="#EDEDED" stroke-width="5.5" stroke-linecap="round"></path>
  <path d="M678.686 477.154H702.732M637.718 477.154H661.764H637.718Z" stroke="#EDEDED" stroke-width="5.5" stroke-linecap="round"></path>
  <path d="M637.718 450.436H702.91" stroke="#EDEDED" stroke-width="5.5" stroke-linecap="round"></path>
  <path d="M637.718 503.872H702.91" stroke="#EDEDED" stroke-width="5.5" stroke-linecap="round"></path>
  <path d="M732.122 493.185H783.776" stroke="#EDEDED" stroke-width="5.5" stroke-linecap="round"></path>
  <path d="M624 582.779H689.907M637.54 557.308H665.327" stroke="#EDEDED" stroke-width="5.5" stroke-linecap="round"></path>
  <path d="M611 423.718L717.872 397" stroke="#EDEDED" stroke-width="5.5" stroke-linecap="round"></path>
  <path d="M824.744 582.245C824.744 544.84 794.82 514.559 757.949 514.559C721.078 514.559 691.154 544.84 691.154 582.245" stroke="#EDEDED" stroke-width="5.5" stroke-linecap="round"></path>
</svg>
